<mxfile host="app.diagrams.net" modified="2020-06-27T09:57:59.430Z" agent="5.0 (Windows NT 10.0; Win64; x64) AppleWebKit/537.36 (KHTML, like Gecko) Chrome/80.0.3987.163 Safari/537.36" etag="B4lUnLks_geQReFTy-6J" version="13.3.5" type="github">
  <diagram id="C5RBs43oDa-KdzZeNtuy" name="Page-1">
    <mxGraphModel dx="1695" dy="520" grid="1" gridSize="10" guides="1" tooltips="1" connect="1" arrows="1" fold="1" page="1" pageScale="1" pageWidth="827" pageHeight="1169" math="0" shadow="0">
      <root>
        <mxCell id="WIyWlLk6GJQsqaUBKTNV-0" />
        <mxCell id="WIyWlLk6GJQsqaUBKTNV-1" parent="WIyWlLk6GJQsqaUBKTNV-0" />
        <mxCell id="mES34l63fPlMWxpfFIeK-52" style="edgeStyle=orthogonalEdgeStyle;rounded=0;orthogonalLoop=1;jettySize=auto;html=1;entryX=0.5;entryY=0;entryDx=0;entryDy=0;" parent="WIyWlLk6GJQsqaUBKTNV-1" source="mES34l63fPlMWxpfFIeK-0" target="mES34l63fPlMWxpfFIeK-50" edge="1">
          <mxGeometry relative="1" as="geometry" />
        </mxCell>
        <object label="ADMIN" id="mES34l63fPlMWxpfFIeK-0">
          <mxCell style="rounded=0;whiteSpace=wrap;html=1;" parent="WIyWlLk6GJQsqaUBKTNV-1" vertex="1">
            <mxGeometry x="35" y="120" width="40" height="30" as="geometry" />
          </mxCell>
        </object>
        <mxCell id="mES34l63fPlMWxpfFIeK-7" style="edgeStyle=orthogonalEdgeStyle;rounded=0;orthogonalLoop=1;jettySize=auto;html=1;exitX=0.5;exitY=0;exitDx=0;exitDy=0;entryX=0.5;entryY=1;entryDx=0;entryDy=0;" parent="WIyWlLk6GJQsqaUBKTNV-1" source="mES34l63fPlMWxpfFIeK-1" target="mES34l63fPlMWxpfFIeK-0" edge="1">
          <mxGeometry relative="1" as="geometry" />
        </mxCell>
        <mxCell id="mES34l63fPlMWxpfFIeK-1" value="PASSWORD" style="ellipse;whiteSpace=wrap;html=1;" parent="WIyWlLk6GJQsqaUBKTNV-1" vertex="1">
          <mxGeometry x="20" y="230" width="70" height="40" as="geometry" />
        </mxCell>
        <mxCell id="mES34l63fPlMWxpfFIeK-5" style="edgeStyle=orthogonalEdgeStyle;rounded=0;orthogonalLoop=1;jettySize=auto;html=1;exitX=0.5;exitY=1;exitDx=0;exitDy=0;entryX=0.25;entryY=0;entryDx=0;entryDy=0;" parent="WIyWlLk6GJQsqaUBKTNV-1" source="mES34l63fPlMWxpfFIeK-2" target="mES34l63fPlMWxpfFIeK-0" edge="1">
          <mxGeometry relative="1" as="geometry" />
        </mxCell>
        <mxCell id="mES34l63fPlMWxpfFIeK-2" value="USER_ID" style="ellipse;whiteSpace=wrap;html=1;fontStyle=4" parent="WIyWlLk6GJQsqaUBKTNV-1" vertex="1">
          <mxGeometry x="20" y="40" width="50" height="30" as="geometry" />
        </mxCell>
        <mxCell id="mES34l63fPlMWxpfFIeK-103" style="edgeStyle=orthogonalEdgeStyle;rounded=0;orthogonalLoop=1;jettySize=auto;html=1;entryX=0.5;entryY=0;entryDx=0;entryDy=0;" parent="WIyWlLk6GJQsqaUBKTNV-1" source="mES34l63fPlMWxpfFIeK-9" target="mES34l63fPlMWxpfFIeK-100" edge="1">
          <mxGeometry relative="1" as="geometry" />
        </mxCell>
        <mxCell id="mES34l63fPlMWxpfFIeK-9" value="CLIENT" style="rounded=0;whiteSpace=wrap;html=1;" parent="WIyWlLk6GJQsqaUBKTNV-1" vertex="1">
          <mxGeometry x="170" y="300" width="90" height="30" as="geometry" />
        </mxCell>
        <mxCell id="mES34l63fPlMWxpfFIeK-16" style="edgeStyle=orthogonalEdgeStyle;rounded=0;orthogonalLoop=1;jettySize=auto;html=1;exitX=1;exitY=0.5;exitDx=0;exitDy=0;entryX=0;entryY=0.5;entryDx=0;entryDy=0;" parent="WIyWlLk6GJQsqaUBKTNV-1" source="mES34l63fPlMWxpfFIeK-10" target="mES34l63fPlMWxpfFIeK-9" edge="1">
          <mxGeometry relative="1" as="geometry" />
        </mxCell>
        <mxCell id="mES34l63fPlMWxpfFIeK-10" value="PHONE_NO" style="ellipse;whiteSpace=wrap;html=1;" parent="WIyWlLk6GJQsqaUBKTNV-1" vertex="1">
          <mxGeometry x="20" y="330" width="90" height="30" as="geometry" />
        </mxCell>
        <mxCell id="mES34l63fPlMWxpfFIeK-19" style="edgeStyle=orthogonalEdgeStyle;rounded=0;orthogonalLoop=1;jettySize=auto;html=1;entryX=0.144;entryY=1.033;entryDx=0;entryDy=0;entryPerimeter=0;" parent="WIyWlLk6GJQsqaUBKTNV-1" source="mES34l63fPlMWxpfFIeK-11" target="mES34l63fPlMWxpfFIeK-9" edge="1">
          <mxGeometry relative="1" as="geometry" />
        </mxCell>
        <mxCell id="mES34l63fPlMWxpfFIeK-11" value="&lt;u&gt;NAME&lt;/u&gt;" style="ellipse;whiteSpace=wrap;html=1;" parent="WIyWlLk6GJQsqaUBKTNV-1" vertex="1">
          <mxGeometry x="60" y="390" width="90" height="30" as="geometry" />
        </mxCell>
        <mxCell id="mES34l63fPlMWxpfFIeK-23" style="edgeStyle=none;rounded=0;orthogonalLoop=1;jettySize=auto;html=1;exitX=0.989;exitY=0.167;exitDx=0;exitDy=0;exitPerimeter=0;" parent="WIyWlLk6GJQsqaUBKTNV-1" source="mES34l63fPlMWxpfFIeK-12" target="mES34l63fPlMWxpfFIeK-9" edge="1">
          <mxGeometry relative="1" as="geometry" />
        </mxCell>
        <mxCell id="mES34l63fPlMWxpfFIeK-12" value="&lt;u&gt;ADDRESS&lt;/u&gt;" style="ellipse;whiteSpace=wrap;html=1;" parent="WIyWlLk6GJQsqaUBKTNV-1" vertex="1">
          <mxGeometry x="130" y="450" width="90" height="30" as="geometry" />
        </mxCell>
        <mxCell id="mES34l63fPlMWxpfFIeK-48" style="edgeStyle=none;rounded=0;orthogonalLoop=1;jettySize=auto;html=1;entryX=1;entryY=1;entryDx=0;entryDy=0;" parent="WIyWlLk6GJQsqaUBKTNV-1" source="mES34l63fPlMWxpfFIeK-13" target="mES34l63fPlMWxpfFIeK-9" edge="1">
          <mxGeometry relative="1" as="geometry" />
        </mxCell>
        <mxCell id="GmFHFqo8vPaLInNtUKn_-0" value="Text" style="edgeLabel;html=1;align=center;verticalAlign=middle;resizable=0;points=[];" vertex="1" connectable="0" parent="mES34l63fPlMWxpfFIeK-48">
          <mxGeometry x="0.3339" y="2" relative="1" as="geometry">
            <mxPoint as="offset" />
          </mxGeometry>
        </mxCell>
        <mxCell id="mES34l63fPlMWxpfFIeK-13" value="EMAIL" style="ellipse;whiteSpace=wrap;html=1;" parent="WIyWlLk6GJQsqaUBKTNV-1" vertex="1">
          <mxGeometry x="215" y="480" width="90" height="30" as="geometry" />
        </mxCell>
        <mxCell id="mES34l63fPlMWxpfFIeK-31" style="edgeStyle=none;rounded=0;orthogonalLoop=1;jettySize=auto;html=1;exitX=0.5;exitY=0;exitDx=0;exitDy=0;entryX=1;entryY=0;entryDx=0;entryDy=0;" parent="WIyWlLk6GJQsqaUBKTNV-1" source="mES34l63fPlMWxpfFIeK-14" target="mES34l63fPlMWxpfFIeK-9" edge="1">
          <mxGeometry relative="1" as="geometry">
            <mxPoint x="345" y="320" as="targetPoint" />
          </mxGeometry>
        </mxCell>
        <mxCell id="mES34l63fPlMWxpfFIeK-14" value="BILLS" style="ellipse;whiteSpace=wrap;html=1;" parent="WIyWlLk6GJQsqaUBKTNV-1" vertex="1">
          <mxGeometry x="210" y="220" width="90" height="30" as="geometry" />
        </mxCell>
        <mxCell id="mES34l63fPlMWxpfFIeK-41" style="edgeStyle=none;rounded=0;orthogonalLoop=1;jettySize=auto;html=1;entryX=0.5;entryY=0;entryDx=0;entryDy=0;" parent="WIyWlLk6GJQsqaUBKTNV-1" source="mES34l63fPlMWxpfFIeK-32" target="mES34l63fPlMWxpfFIeK-36" edge="1">
          <mxGeometry relative="1" as="geometry" />
        </mxCell>
        <mxCell id="mES34l63fPlMWxpfFIeK-43" value="" style="edgeStyle=none;rounded=0;orthogonalLoop=1;jettySize=auto;html=1;" parent="WIyWlLk6GJQsqaUBKTNV-1" source="mES34l63fPlMWxpfFIeK-32" edge="1">
          <mxGeometry relative="1" as="geometry">
            <mxPoint x="610" y="470" as="targetPoint" />
          </mxGeometry>
        </mxCell>
        <mxCell id="mES34l63fPlMWxpfFIeK-44" style="edgeStyle=none;rounded=0;orthogonalLoop=1;jettySize=auto;html=1;exitX=1;exitY=1;exitDx=0;exitDy=0;" parent="WIyWlLk6GJQsqaUBKTNV-1" source="mES34l63fPlMWxpfFIeK-32" target="mES34l63fPlMWxpfFIeK-34" edge="1">
          <mxGeometry relative="1" as="geometry" />
        </mxCell>
        <mxCell id="mES34l63fPlMWxpfFIeK-32" value="PRODUCT" style="rounded=0;whiteSpace=wrap;html=1;" parent="WIyWlLk6GJQsqaUBKTNV-1" vertex="1">
          <mxGeometry x="560" y="330" width="100" height="40" as="geometry" />
        </mxCell>
        <mxCell id="mES34l63fPlMWxpfFIeK-45" style="edgeStyle=none;rounded=0;orthogonalLoop=1;jettySize=auto;html=1;entryX=1;entryY=0.5;entryDx=0;entryDy=0;" parent="WIyWlLk6GJQsqaUBKTNV-1" target="mES34l63fPlMWxpfFIeK-32" edge="1">
          <mxGeometry relative="1" as="geometry">
            <mxPoint x="742.1595803197815" y="402.2833692944066" as="sourcePoint" />
          </mxGeometry>
        </mxCell>
        <mxCell id="mES34l63fPlMWxpfFIeK-34" value="PROD_NAME" style="ellipse;whiteSpace=wrap;html=1;" parent="WIyWlLk6GJQsqaUBKTNV-1" vertex="1">
          <mxGeometry x="690" y="470" width="80" height="40" as="geometry" />
        </mxCell>
        <mxCell id="mES34l63fPlMWxpfFIeK-35" value="QUANTITYLEVEL" style="ellipse;whiteSpace=wrap;html=1;" parent="WIyWlLk6GJQsqaUBKTNV-1" vertex="1">
          <mxGeometry x="560" y="470" width="100" height="40" as="geometry" />
        </mxCell>
        <mxCell id="mES34l63fPlMWxpfFIeK-36" value="PH LEVEL" style="ellipse;whiteSpace=wrap;html=1;" parent="WIyWlLk6GJQsqaUBKTNV-1" vertex="1">
          <mxGeometry x="470" y="470" width="80" height="40" as="geometry" />
        </mxCell>
        <mxCell id="mES34l63fPlMWxpfFIeK-37" value="TEMPERATURE" style="ellipse;whiteSpace=wrap;html=1;" parent="WIyWlLk6GJQsqaUBKTNV-1" vertex="1">
          <mxGeometry x="370" y="440" width="100" height="30" as="geometry" />
        </mxCell>
        <mxCell id="mES34l63fPlMWxpfFIeK-39" style="edgeStyle=none;rounded=0;orthogonalLoop=1;jettySize=auto;html=1;entryX=0;entryY=0.75;entryDx=0;entryDy=0;" parent="WIyWlLk6GJQsqaUBKTNV-1" source="mES34l63fPlMWxpfFIeK-37" target="mES34l63fPlMWxpfFIeK-32" edge="1">
          <mxGeometry relative="1" as="geometry">
            <mxPoint x="550" y="360" as="targetPoint" />
          </mxGeometry>
        </mxCell>
        <mxCell id="mES34l63fPlMWxpfFIeK-47" style="edgeStyle=none;rounded=0;orthogonalLoop=1;jettySize=auto;html=1;entryX=0;entryY=0.25;entryDx=0;entryDy=0;" parent="WIyWlLk6GJQsqaUBKTNV-1" source="mES34l63fPlMWxpfFIeK-46" target="mES34l63fPlMWxpfFIeK-32" edge="1">
          <mxGeometry relative="1" as="geometry" />
        </mxCell>
        <mxCell id="mES34l63fPlMWxpfFIeK-46" value="CURDNESS" style="ellipse;whiteSpace=wrap;html=1;" parent="WIyWlLk6GJQsqaUBKTNV-1" vertex="1">
          <mxGeometry x="380" y="320" width="90" height="40" as="geometry" />
        </mxCell>
        <mxCell id="mES34l63fPlMWxpfFIeK-49" value="TRANS_DETAAILS" style="ellipse;whiteSpace=wrap;html=1;" parent="WIyWlLk6GJQsqaUBKTNV-1" vertex="1">
          <mxGeometry x="720" y="380" width="110" height="40" as="geometry" />
        </mxCell>
        <mxCell id="mES34l63fPlMWxpfFIeK-54" style="edgeStyle=orthogonalEdgeStyle;rounded=0;orthogonalLoop=1;jettySize=auto;html=1;entryX=0.2;entryY=0.25;entryDx=0;entryDy=0;entryPerimeter=0;" parent="WIyWlLk6GJQsqaUBKTNV-1" source="mES34l63fPlMWxpfFIeK-50" target="mES34l63fPlMWxpfFIeK-32" edge="1">
          <mxGeometry relative="1" as="geometry" />
        </mxCell>
        <mxCell id="UjjfFm4OdMRU-PV7L80q-1" style="edgeStyle=orthogonalEdgeStyle;rounded=0;orthogonalLoop=1;jettySize=auto;html=1;entryX=0.178;entryY=-0.1;entryDx=0;entryDy=0;entryPerimeter=0;" parent="WIyWlLk6GJQsqaUBKTNV-1" source="mES34l63fPlMWxpfFIeK-50" target="mES34l63fPlMWxpfFIeK-9" edge="1">
          <mxGeometry relative="1" as="geometry">
            <Array as="points">
              <mxPoint x="186" y="210" />
            </Array>
          </mxGeometry>
        </mxCell>
        <mxCell id="mES34l63fPlMWxpfFIeK-50" value="MANAGES" style="rhombus;whiteSpace=wrap;html=1;" parent="WIyWlLk6GJQsqaUBKTNV-1" vertex="1">
          <mxGeometry x="540" y="170" width="80" height="80" as="geometry" />
        </mxCell>
        <mxCell id="mES34l63fPlMWxpfFIeK-66" style="edgeStyle=orthogonalEdgeStyle;rounded=0;orthogonalLoop=1;jettySize=auto;html=1;entryX=1;entryY=0.5;entryDx=0;entryDy=0;" parent="WIyWlLk6GJQsqaUBKTNV-1" source="mES34l63fPlMWxpfFIeK-55" target="mES34l63fPlMWxpfFIeK-50" edge="1">
          <mxGeometry relative="1" as="geometry" />
        </mxCell>
        <mxCell id="mES34l63fPlMWxpfFIeK-55" value="MILK _CENTER" style="rounded=0;whiteSpace=wrap;html=1;" parent="WIyWlLk6GJQsqaUBKTNV-1" vertex="1">
          <mxGeometry x="840" y="170" width="100" height="40" as="geometry" />
        </mxCell>
        <mxCell id="mES34l63fPlMWxpfFIeK-63" style="edgeStyle=orthogonalEdgeStyle;rounded=0;orthogonalLoop=1;jettySize=auto;html=1;entryX=0.89;entryY=0;entryDx=0;entryDy=0;entryPerimeter=0;" parent="WIyWlLk6GJQsqaUBKTNV-1" source="mES34l63fPlMWxpfFIeK-57" target="mES34l63fPlMWxpfFIeK-55" edge="1">
          <mxGeometry relative="1" as="geometry" />
        </mxCell>
        <mxCell id="mES34l63fPlMWxpfFIeK-57" value="QUANTITY_PROD" style="ellipse;whiteSpace=wrap;html=1;" parent="WIyWlLk6GJQsqaUBKTNV-1" vertex="1">
          <mxGeometry x="870" y="10" width="110" height="50" as="geometry" />
        </mxCell>
        <mxCell id="mES34l63fPlMWxpfFIeK-64" style="edgeStyle=orthogonalEdgeStyle;rounded=0;orthogonalLoop=1;jettySize=auto;html=1;entryX=1;entryY=0.75;entryDx=0;entryDy=0;" parent="WIyWlLk6GJQsqaUBKTNV-1" source="mES34l63fPlMWxpfFIeK-58" target="mES34l63fPlMWxpfFIeK-55" edge="1">
          <mxGeometry relative="1" as="geometry" />
        </mxCell>
        <mxCell id="mES34l63fPlMWxpfFIeK-58" value="&lt;u&gt;CENTER_NAME&lt;/u&gt;" style="ellipse;whiteSpace=wrap;html=1;" parent="WIyWlLk6GJQsqaUBKTNV-1" vertex="1">
          <mxGeometry x="1030" y="30" width="100" height="40" as="geometry" />
        </mxCell>
        <mxCell id="mES34l63fPlMWxpfFIeK-60" style="edgeStyle=orthogonalEdgeStyle;rounded=0;orthogonalLoop=1;jettySize=auto;html=1;entryX=0;entryY=0.5;entryDx=0;entryDy=0;" parent="WIyWlLk6GJQsqaUBKTNV-1" source="mES34l63fPlMWxpfFIeK-59" target="mES34l63fPlMWxpfFIeK-55" edge="1">
          <mxGeometry relative="1" as="geometry">
            <Array as="points">
              <mxPoint x="800" y="170" />
              <mxPoint x="840" y="170" />
            </Array>
          </mxGeometry>
        </mxCell>
        <mxCell id="mES34l63fPlMWxpfFIeK-59" value="LOCATION" style="ellipse;whiteSpace=wrap;html=1;" parent="WIyWlLk6GJQsqaUBKTNV-1" vertex="1">
          <mxGeometry x="750" y="60" width="100" height="40" as="geometry" />
        </mxCell>
        <mxCell id="mES34l63fPlMWxpfFIeK-92" style="edgeStyle=orthogonalEdgeStyle;rounded=0;orthogonalLoop=1;jettySize=auto;html=1;entryX=1;entryY=0.75;entryDx=0;entryDy=0;" parent="WIyWlLk6GJQsqaUBKTNV-1" source="mES34l63fPlMWxpfFIeK-68" target="mES34l63fPlMWxpfFIeK-84" edge="1">
          <mxGeometry relative="1" as="geometry" />
        </mxCell>
        <mxCell id="mES34l63fPlMWxpfFIeK-68" value="DRIVER" style="ellipse;whiteSpace=wrap;html=1;" parent="WIyWlLk6GJQsqaUBKTNV-1" vertex="1">
          <mxGeometry x="480" y="620" width="120" height="40" as="geometry" />
        </mxCell>
        <mxCell id="mES34l63fPlMWxpfFIeK-88" style="edgeStyle=orthogonalEdgeStyle;rounded=0;orthogonalLoop=1;jettySize=auto;html=1;" parent="WIyWlLk6GJQsqaUBKTNV-1" source="mES34l63fPlMWxpfFIeK-69" target="mES34l63fPlMWxpfFIeK-84" edge="1">
          <mxGeometry relative="1" as="geometry" />
        </mxCell>
        <mxCell id="mES34l63fPlMWxpfFIeK-69" value="VEHICLE_NAME" style="ellipse;whiteSpace=wrap;html=1;" parent="WIyWlLk6GJQsqaUBKTNV-1" vertex="1">
          <mxGeometry x="250" y="740" width="130" height="40" as="geometry" />
        </mxCell>
        <mxCell id="mES34l63fPlMWxpfFIeK-91" style="edgeStyle=orthogonalEdgeStyle;rounded=0;orthogonalLoop=1;jettySize=auto;html=1;entryX=0.1;entryY=1.033;entryDx=0;entryDy=0;entryPerimeter=0;" parent="WIyWlLk6GJQsqaUBKTNV-1" source="mES34l63fPlMWxpfFIeK-70" target="mES34l63fPlMWxpfFIeK-84" edge="1">
          <mxGeometry relative="1" as="geometry" />
        </mxCell>
        <mxCell id="mES34l63fPlMWxpfFIeK-70" value="&lt;u&gt;PLATE_NO&lt;/u&gt;" style="ellipse;whiteSpace=wrap;html=1;" parent="WIyWlLk6GJQsqaUBKTNV-1" vertex="1">
          <mxGeometry x="91" y="730" width="130" height="40" as="geometry" />
        </mxCell>
        <mxCell id="mES34l63fPlMWxpfFIeK-89" style="edgeStyle=orthogonalEdgeStyle;rounded=0;orthogonalLoop=1;jettySize=auto;html=1;entryX=0;entryY=0.5;entryDx=0;entryDy=0;" parent="WIyWlLk6GJQsqaUBKTNV-1" source="mES34l63fPlMWxpfFIeK-71" target="mES34l63fPlMWxpfFIeK-84" edge="1">
          <mxGeometry relative="1" as="geometry" />
        </mxCell>
        <mxCell id="mES34l63fPlMWxpfFIeK-97" style="edgeStyle=orthogonalEdgeStyle;rounded=0;orthogonalLoop=1;jettySize=auto;html=1;entryX=1;entryY=0.5;entryDx=0;entryDy=0;" parent="WIyWlLk6GJQsqaUBKTNV-1" source="mES34l63fPlMWxpfFIeK-71" target="mES34l63fPlMWxpfFIeK-95" edge="1">
          <mxGeometry relative="1" as="geometry" />
        </mxCell>
        <mxCell id="mES34l63fPlMWxpfFIeK-98" value="" style="edgeStyle=orthogonalEdgeStyle;rounded=0;orthogonalLoop=1;jettySize=auto;html=1;" parent="WIyWlLk6GJQsqaUBKTNV-1" source="mES34l63fPlMWxpfFIeK-71" target="mES34l63fPlMWxpfFIeK-93" edge="1">
          <mxGeometry relative="1" as="geometry" />
        </mxCell>
        <mxCell id="mES34l63fPlMWxpfFIeK-71" value="LOCATION" style="ellipse;whiteSpace=wrap;html=1;" parent="WIyWlLk6GJQsqaUBKTNV-1" vertex="1">
          <mxGeometry y="620" width="120" height="40" as="geometry" />
        </mxCell>
        <mxCell id="mES34l63fPlMWxpfFIeK-84" value="TRANSPORT" style="rounded=0;whiteSpace=wrap;html=1;" parent="WIyWlLk6GJQsqaUBKTNV-1" vertex="1">
          <mxGeometry x="215" y="620" width="100" height="30" as="geometry" />
        </mxCell>
        <mxCell id="mES34l63fPlMWxpfFIeK-93" value="ROUTE" style="ellipse;whiteSpace=wrap;html=1;" parent="WIyWlLk6GJQsqaUBKTNV-1" vertex="1">
          <mxGeometry x="22.5" y="510" width="75" height="30" as="geometry" />
        </mxCell>
        <mxCell id="mES34l63fPlMWxpfFIeK-96" style="edgeStyle=orthogonalEdgeStyle;rounded=0;orthogonalLoop=1;jettySize=auto;html=1;entryX=0.608;entryY=1.025;entryDx=0;entryDy=0;entryPerimeter=0;" parent="WIyWlLk6GJQsqaUBKTNV-1" source="mES34l63fPlMWxpfFIeK-94" target="mES34l63fPlMWxpfFIeK-71" edge="1">
          <mxGeometry relative="1" as="geometry" />
        </mxCell>
        <mxCell id="mES34l63fPlMWxpfFIeK-94" value="&lt;u&gt;TIME&lt;/u&gt;" style="ellipse;whiteSpace=wrap;html=1;" parent="WIyWlLk6GJQsqaUBKTNV-1" vertex="1">
          <mxGeometry x="-60" y="730" width="75" height="30" as="geometry" />
        </mxCell>
        <mxCell id="mES34l63fPlMWxpfFIeK-95" value="&lt;u&gt;DATE&lt;/u&gt;" style="ellipse;whiteSpace=wrap;html=1;" parent="WIyWlLk6GJQsqaUBKTNV-1" vertex="1">
          <mxGeometry x="-160" y="625" width="75" height="30" as="geometry" />
        </mxCell>
        <mxCell id="mES34l63fPlMWxpfFIeK-101" style="edgeStyle=orthogonalEdgeStyle;rounded=0;orthogonalLoop=1;jettySize=auto;html=1;entryX=0.5;entryY=0;entryDx=0;entryDy=0;" parent="WIyWlLk6GJQsqaUBKTNV-1" edge="1">
          <mxGeometry relative="1" as="geometry">
            <mxPoint x="330" y="539" as="sourcePoint" />
            <mxPoint x="265" y="619" as="targetPoint" />
          </mxGeometry>
        </mxCell>
        <mxCell id="mES34l63fPlMWxpfFIeK-100" value="KNOWS" style="rhombus;whiteSpace=wrap;html=1;" parent="WIyWlLk6GJQsqaUBKTNV-1" vertex="1">
          <mxGeometry x="330" y="510" width="60" height="60" as="geometry" />
        </mxCell>
        <mxCell id="UjjfFm4OdMRU-PV7L80q-4" style="edgeStyle=orthogonalEdgeStyle;rounded=0;orthogonalLoop=1;jettySize=auto;html=1;entryX=0;entryY=0;entryDx=0;entryDy=0;" parent="WIyWlLk6GJQsqaUBKTNV-1" source="UjjfFm4OdMRU-PV7L80q-3" target="mES34l63fPlMWxpfFIeK-9" edge="1">
          <mxGeometry relative="1" as="geometry" />
        </mxCell>
        <mxCell id="UjjfFm4OdMRU-PV7L80q-3" value="PASSWORD" style="ellipse;whiteSpace=wrap;html=1;" parent="WIyWlLk6GJQsqaUBKTNV-1" vertex="1">
          <mxGeometry x="-100" y="270" width="90" height="40" as="geometry" />
        </mxCell>
        <mxCell id="UjjfFm4OdMRU-PV7L80q-9" style="edgeStyle=orthogonalEdgeStyle;rounded=0;orthogonalLoop=1;jettySize=auto;html=1;entryX=0;entryY=1;entryDx=0;entryDy=0;" parent="WIyWlLk6GJQsqaUBKTNV-1" source="UjjfFm4OdMRU-PV7L80q-6" target="mES34l63fPlMWxpfFIeK-11" edge="1">
          <mxGeometry relative="1" as="geometry" />
        </mxCell>
        <mxCell id="UjjfFm4OdMRU-PV7L80q-6" value="LAST_NAME" style="ellipse;whiteSpace=wrap;html=1;" parent="WIyWlLk6GJQsqaUBKTNV-1" vertex="1">
          <mxGeometry x="-210" y="350" width="90" height="40" as="geometry" />
        </mxCell>
        <mxCell id="UjjfFm4OdMRU-PV7L80q-10" style="edgeStyle=orthogonalEdgeStyle;rounded=0;orthogonalLoop=1;jettySize=auto;html=1;entryX=0.422;entryY=1;entryDx=0;entryDy=0;entryPerimeter=0;" parent="WIyWlLk6GJQsqaUBKTNV-1" source="UjjfFm4OdMRU-PV7L80q-7" target="mES34l63fPlMWxpfFIeK-11" edge="1">
          <mxGeometry relative="1" as="geometry" />
        </mxCell>
        <mxCell id="UjjfFm4OdMRU-PV7L80q-7" value="FIRST_NAME" style="ellipse;whiteSpace=wrap;html=1;" parent="WIyWlLk6GJQsqaUBKTNV-1" vertex="1">
          <mxGeometry x="-130" y="434" width="80" height="40" as="geometry" />
        </mxCell>
      </root>
    </mxGraphModel>
  </diagram>
</mxfile>
